:SAMPLES-PER-SECOND 30
:FULLY-SPECIFIED
:DEGREES
82
root  -28.5205 37.3329 5.66376 17.5389 -85.448 -21.8284
RightUpLeg  -25.5216 -12.4875 4.8606
RightLeg  35.7771 -0.0280972 -0.293503
RightFoot  -6.64362 0.192525 -5.78728
RightToes  5.82063e-011 0 -3.6325e-017
Spine  9.07259 -1.90441 12.7559
Spine1  9.1136 -0.877051 1.01091
HEad  -0.178725 -3.98659 -6.19795
LeftShoulder1  -0.550673 4.98123 -31.1264
LeftArm  9.0196 2.19243 -48.4033
LeftForeArm  19.6584 -17.7733 -6.2053
LeftHand  -0.0365354 6.76563 -1.12774
RightShoulder  -0.670624 -5.49329 27.0258
RightArm  5.90955 -5.6685 44.6353
RightForeArm  14.5398 5.98719 4.04892
RightHand  -0.0436185 2.20258 -0.853996
LeftUpLeg  8.67384 9.90778 4.88002
LeftLeg  48.8175 -0.309259 0.136807
LeftFoot  3.46964 1.32525 -10.8808
LeftToes  1.68253e-010 -3.2327e-011 -2.69673e-012
83
root  -29.6829 37.2768 5.59524 18.3237 -83.8425 -23.2678
RightUpLeg  -23.6865 -13.1653 5.09231
RightLeg  37.872 -0.752474 -0.908925
RightFoot  -9.53846 0.0235187 -5.5156
RightToes  5.82063e-011 0 -3.6325e-017
Spine  9.63594 -2.17701 13.9348
Spine1  9.73765 -0.867259 1.70333
HEad  0.356625 -5.79072 -5.4509
LeftShoulder1  -0.504005 4.85219 -31.232
LeftArm  9.73734 2.52407 -48.3247
LeftForeArm  19.207 -18.3514 -5.92332
LeftHand  -0.0376882 6.81102 -0.946763
RightShoulder  -0.65209 -5.4401 26.9741
RightArm  6.07526 -4.78173 44.9743
RightForeArm  13.8241 6.28852 4.17246
RightHand  -0.055614 1.90468 -1.02769
LeftUpLeg  2.77721 8.70322 5.97441
LeftLeg  58.3079 0.935954 2.08714
LeftFoot  12.0363 1.29369 -6.3866
LeftToes  1.68253e-010 -3.2327e-011 -2.69673e-012
84
root  -30.9183 37.4641 5.53375 14.7368 -82.54 -20.6034
RightUpLeg  -20.3295 -13.9251 4.68518
RightLeg  37.9963 -1.3015 -1.37722
RightFoot  -11.775 -0.0989083 -4.92846
RightToes  5.82063e-011 0 -3.6325e-017
Spine  10.2326 -2.37026 14.1782
Spine1  9.85187 -0.988539 2.15652
HEad  1.18717 -7.19296 -5.04921
LeftShoulder1  -0.485959 4.80513 -31.1992
LeftArm  9.58412 3.10912 -48.1183
LeftForeArm  18.466 -18.7161 -5.71226
LeftHand  -0.029006 6.37204 -0.485089
RightShoulder  -0.612344 -5.34879 26.4693
RightArm  6.81581 -4.10466 45.6718
RightForeArm  13.2456 7.78111 4.53646
RightHand  -0.100428 2.63458 -1.65284
LeftUpLeg  -2.31486 7.22907 6.34751
LeftLeg  65.2068 0.280912 1.32809
LeftFoot  7.24638 0.78684 -5.09018
LeftToes  1.68253e-010 -3.2327e-011 -2.69673e-012
85
root  -32.1618 37.7128 5.52014 11.8094 -82.3956 -18.1401
RightUpLeg  -17.1008 -14.0553 3.9757
RightLeg  37.3497 -1.37053 -1.40729
RightFoot  -13.525 -0.177965 -4.5571
RightToes  5.82063e-011 0 -3.6325e-017
Spine  9.84447 -2.09757 14.5038
Spine1  10.6465 -0.503528 1.59865
HEad  2.31074 -8.15608 -5.07226
LeftShoulder1  -0.509802 4.86409 -31.3415
LeftArm  8.91427 3.33935 -47.5643
LeftForeArm  17.938 -18.7849 -5.63893
LeftHand  -0.0295519 6.39266 -0.0518169
RightShoulder  -0.643312 -5.43571 26.5953
RightArm  8.49516 -2.9903 45.8047
RightForeArm  13.6297 10.4907 4.95903
RightHand  -0.0631365 2.15308 -1.11594
LeftUpLeg  -7.28614 6.59553 5.90581
LeftLeg  68.4791 -0.362906 -0.223169
LeftFoot  5.23762 0.597101 -4.33823
LeftToes  1.68253e-010 -3.2327e-011 -2.69673e-012
86
root  -33.4183 38.0069 5.52801 10.1811 -82.7438 -16.7382
RightUpLeg  -13.7395 -13.8125 3.33664
RightLeg  35.8614 -1.30804 -1.2976
RightFoot  -14.836 -0.221071 -3.94917
RightToes  5.82063e-011 0 -3.6325e-017
Spine  9.69645 -1.73226 14.9617
Spine1  10.4055 0.193563 0.508628
HEad  3.61869 -8.54165 -4.62906
LeftShoulder1  -0.57439 5.04879 -31.0236
LeftArm  7.89352 4.27801 -47.1019
LeftForeArm  17.252 -18.8744 -5.53274
LeftHand  -0.0347606 6.61514 0.2433
RightShoulder  -0.660486 -5.47449 26.8253
RightArm  11.0429 -2.25284 45.8918
RightForeArm  10.9509 13.4508 5.10402
RightHand  -0.172316 3.50356 -2.51619
LeftUpLeg  -11.8468 6.38707 5.33415
LeftLeg  68.7032 -0.789944 -1.45093
LeftFoot  3.02141 0.54752 -4.46711
LeftToes  1.68253e-010 -3.2327e-011 -2.69673e-012
87
root  -34.6773 38.3411 5.56301 7.37518 -83.3308 -14.2171
RightUpLeg  -10.071 -13.6338 2.42914
RightLeg  33.8019 -0.965894 -0.965503
RightFoot  -15.6981 -0.232105 -3.31841
RightToes  5.82063e-011 0 -3.6325e-017
Spine  9.72927 -1.28274 14.9412
Spine1  9.86811 0.76705 -0.107493
HEad  4.98528 -8.62785 -5.09648
LeftShoulder1  -0.552573 4.99977 -30.7883
LeftArm  6.18305 5.45541 -46.7155
LeftForeArm  17.2488 -18.6392 -5.52613
LeftHand  -0.0363381 6.48889 0.365151
RightShoulder  -0.66059 -5.4992 26.4112
RightArm  14.4962 -1.84748 46.0921
RightForeArm  8.4956 17.199 4.82792
RightHand  -0.182727 3.47315 -2.64792
LeftUpLeg  -15.6514 6.29401 4.48718
LeftLeg  66.1417 -1.1316 -2.12111
LeftFoot  0.428231 0.382433 -3.75161
LeftToes  1.68253e-010 -3.2327e-011 -2.69673e-012
88
root  -35.9327 38.6275 5.63704 4.47307 -83.9991 -11.5768
RightUpLeg  -6.34364 -13.1301 1.54209
RightLeg  31.437 -0.849534 -0.823128
RightFoot  -16.5279 -0.229903 -2.60402
RightToes  5.82063e-011 0 -3.6325e-017
Spine  9.59121 -1.04906 15.0835
Spine1  9.6158 1.2408 -1.41894
HEad  5.96684 -8.59553 -4.90967
LeftShoulder1  -0.561152 5.03378 -30.5214
LeftArm  3.78793 6.31354 -46.0879
LeftForeArm  18.3137 -17.8599 -5.68944
LeftHand  -0.0295673 6.09057 0.465704
RightShoulder  -0.679177 -5.53925 26.6807
RightArm  17.1052 -0.928671 45.8558
RightForeArm  6.11249 20.9072 4.58858
RightHand  -0.179634 4.01767 -2.47769
LeftUpLeg  -18.6464 6.43553 3.70801
LeftLeg  61.273 -1.41835 -2.23449
LeftFoot  -1.80826 0.329984 -3.82807
LeftToes  1.68253e-010 -3.2327e-011 -2.69673e-012
89
root  -37.1847 38.8729 5.6999 2.57568 -84.8048 -9.6021
RightUpLeg  -2.91987 -12.6011 0.881907
RightLeg  28.7794 -0.575085 -0.600047
RightFoot  -17.0878 -0.227578 -2.22891
RightToes  5.82063e-011 0 -3.6325e-017
Spine  9.22881 -0.583592 14.6651
Spine1  9.3508 1.56768 -1.83075
HEad  6.51541 -8.21862 -4.90988
LeftShoulder1  -0.583603 5.08566 -30.7413
LeftArm  3.05342 7.02976 -45.1118
LeftForeArm  18.2696 -17.2512 -5.92175
LeftHand  -0.0325936 6.58107 0.267771
RightShoulder  -0.616822 -5.3963 25.875
RightArm  17.4095 -0.456602 46.1587
RightForeArm  5.74825 24.5097 4.9022
RightHand  -0.27044 4.60157 -3.43654
LeftUpLeg  -21.1497 6.90138 3.21656
LeftLeg  54.3253 -1.87548 -2.32458
LeftFoot  -3.37302 0.286766 -3.8217
LeftToes  1.68253e-010 -3.2327e-011 -2.69673e-012
90
root  -38.3799 39.1084 5.7753 -1.14096 -85.8322 -6.02483
RightUpLeg  0.816003 -11.6359 0.138832
RightLeg  25.6824 -0.414103 -0.421979
RightFoot  -17.3725 -0.220551 -1.95737
RightToes  5.82063e-011 0 -3.6325e-017
Spine  9.32449 -0.249927 14.1236
Spine1  9.14686 1.88036 -2.63795
HEad  6.6574 -7.90545 -5.08149
LeftShoulder1  -0.558458 5.02097 -30.6586
LeftArm  1.98632 7.70507 -44.4493
LeftForeArm  18.7281 -16.3908 -6.23133
LeftHand  -0.0400795 7.16595 -0.0404602
RightShoulder  -0.601025 -5.36596 25.5436
RightArm  16.628 0.366626 46.2574
RightForeArm  6.62202 27.6602 5.61674
RightHand  -0.290448 5.51581 -3.40073
LeftUpLeg  -22.2235 7.3124 2.78705
LeftLeg  45.1203 -2.60796 -2.40029
LeftFoot  -4.27272 0.271024 -3.96995
LeftToes  1.68253e-010 -3.2327e-011 -2.69673e-012
91
root  -39.5741 39.2092 5.85454 -2.47502 -86.817 -4.67232
RightUpLeg  4.25823 -10.4949 -0.280495
RightLeg  22.7349 -0.632146 -0.29299
RightFoot  -18.091 -0.23295 -1.87387
RightToes  5.82063e-011 0 -3.6325e-017
Spine  9.12543 0.0553096 13.4986
Spine1  9.39444 2.07665 -3.0864
HEad  6.16935 -7.31242 -4.78794
LeftShoulder1  -0.584969 5.09022 -30.721
LeftArm  0.62428 8.27806 -43.8002
LeftForeArm  19.6522 -15.6476 -6.37798
LeftHand  -0.0581972 7.34592 -0.998157
RightShoulder  -0.606563 -5.39079 25.4138
RightArm  15.9155 1.48271 46.2489
RightForeArm  7.67349 30.5983 6.26464
RightHand  -0.26064 4.82516 -3.24589
LeftUpLeg  -22.6951 7.46696 2.79098
LeftLeg  34.6923 -3.18012 -2.02632
LeftFoot  -4.501 0.329044 -5.06586
LeftToes  1.68253e-010 -3.2327e-011 -2.69673e-012
92
root  -40.7661 39.1969 5.95588 8.51616 -87.8483 -15.8029
RightUpLeg  7.74029 -9.51235 -0.304683
RightLeg  20.003 -0.484155 -0.0178959
RightFoot  -18.9529 -0.25597 -1.92077
RightToes  5.82063e-011 0 -3.6325e-017
Spine  9.47859 0.192534 13.2509
Spine1  9.19853 2.18479 -3.3998
HEad  5.89091 -6.73824 -4.48844
LeftShoulder1  -0.592451 5.10263 -30.9068
LeftArm  -1.30895 9.08534 -43.1541
LeftForeArm  20.7294 -14.7006 -6.48538
LeftHand  -0.0632675 7.40243 -1.2078
RightShoulder  -0.603534 -5.38267 25.3849
RightArm  16.2315 2.69122 46.1682
RightForeArm  6.72406 32.5709 6.82226
RightHand  -0.382685 5.60729 -4.35756
LeftUpLeg  -22.4747 7.12857 3.54846
LeftLeg  23.855 -2.99631 -1.11776
LeftFoot  -5.28172 0.343614 -5.87892
LeftToes  1.68253e-010 -3.2327e-011 -2.69673e-012
93
root  -41.9834 39.1337 6.06714 45.0621 -88.8218 -52.4837
RightUpLeg  11.2203 -8.87414 -0.433855
RightLeg  17.3247 0.275284 0.300141
RightFoot  -19.7537 -0.275253 -1.92146
RightToes  5.82063e-011 0 -3.6325e-017
Spine  9.49883 0.363602 12.894
Spine1  9.81452 2.44441 -3.98947
HEad  5.34776 -5.75709 -3.93791
LeftShoulder1  -0.592978 5.1216 -30.4953
LeftArm  -3.21493 9.70454 -43.0287
LeftForeArm  21.2762 -13.4546 -6.63587
LeftHand  -0.0521563 7.16349 -0.849218
RightShoulder  -0.634976 -5.45863 25.7739
RightArm  16.5853 4.23265 46.1472
RightForeArm  5.87584 33.754 7.18465
RightHand  -0.411528 5.62719 -4.64063
LeftUpLeg  -21.3899 6.69215 4.72447
LeftLeg  12.3942 -1.49825 -0.15632
LeftFoot  -5.65664 0.315251 -5.66537
LeftToes  1.68253e-010 -3.2327e-011 -2.69673e-012
